<mxfile host="Electron" agent="Mozilla/5.0 (Windows NT 10.0; Win64; x64) AppleWebKit/537.36 (KHTML, like Gecko) draw.io/24.7.17 Chrome/128.0.6613.36 Electron/32.0.1 Safari/537.36" version="24.7.17" pages="3">
  <diagram name="Linear_search" id="tRGjx0zP0mJTRucIkM3l">
    <mxGraphModel dx="1687" dy="993" grid="1" gridSize="10" guides="1" tooltips="1" connect="1" arrows="1" fold="1" page="1" pageScale="1" pageWidth="16000" pageHeight="22000" math="0" shadow="0">
      <root>
        <mxCell id="0" />
        <mxCell id="1" parent="0" />
        <mxCell id="0EGOPJfjjJfU0e7zZBw7-1" value="" style="edgeStyle=orthogonalEdgeStyle;rounded=0;orthogonalLoop=1;jettySize=auto;html=1;" edge="1" parent="1" source="0EGOPJfjjJfU0e7zZBw7-2" target="0EGOPJfjjJfU0e7zZBw7-5">
          <mxGeometry relative="1" as="geometry" />
        </mxCell>
        <mxCell id="0EGOPJfjjJfU0e7zZBw7-2" value="" style="ellipse;whiteSpace=wrap;html=1;" vertex="1" parent="1">
          <mxGeometry x="360" y="170" width="120" height="80" as="geometry" />
        </mxCell>
        <mxCell id="0EGOPJfjjJfU0e7zZBw7-3" value="linearSearch" style="text;html=1;align=center;verticalAlign=middle;whiteSpace=wrap;rounded=0;" vertex="1" parent="1">
          <mxGeometry x="390" y="195" width="60" height="30" as="geometry" />
        </mxCell>
        <mxCell id="0EGOPJfjjJfU0e7zZBw7-4" value="" style="edgeStyle=orthogonalEdgeStyle;rounded=0;orthogonalLoop=1;jettySize=auto;html=1;" edge="1" parent="1" source="0EGOPJfjjJfU0e7zZBw7-5" target="0EGOPJfjjJfU0e7zZBw7-7">
          <mxGeometry relative="1" as="geometry" />
        </mxCell>
        <mxCell id="0EGOPJfjjJfU0e7zZBw7-5" value="" style="whiteSpace=wrap;html=1;" vertex="1" parent="1">
          <mxGeometry x="360" y="290" width="120" height="60" as="geometry" />
        </mxCell>
        <mxCell id="0EGOPJfjjJfU0e7zZBw7-6" value="" style="edgeStyle=orthogonalEdgeStyle;rounded=0;orthogonalLoop=1;jettySize=auto;html=1;" edge="1" parent="1" source="0EGOPJfjjJfU0e7zZBw7-7" target="0EGOPJfjjJfU0e7zZBw7-9">
          <mxGeometry relative="1" as="geometry" />
        </mxCell>
        <mxCell id="0EGOPJfjjJfU0e7zZBw7-7" value="" style="whiteSpace=wrap;html=1;" vertex="1" parent="1">
          <mxGeometry x="320" y="390" width="200" height="50" as="geometry" />
        </mxCell>
        <mxCell id="0EGOPJfjjJfU0e7zZBw7-8" value="" style="edgeStyle=orthogonalEdgeStyle;rounded=0;orthogonalLoop=1;jettySize=auto;html=1;" edge="1" parent="1" source="0EGOPJfjjJfU0e7zZBw7-9" target="0EGOPJfjjJfU0e7zZBw7-15">
          <mxGeometry relative="1" as="geometry" />
        </mxCell>
        <mxCell id="0EGOPJfjjJfU0e7zZBw7-9" value="" style="whiteSpace=wrap;html=1;" vertex="1" parent="1">
          <mxGeometry x="360" y="490" width="120" height="50" as="geometry" />
        </mxCell>
        <mxCell id="0EGOPJfjjJfU0e7zZBw7-10" value="let arrey;" style="text;html=1;align=center;verticalAlign=middle;whiteSpace=wrap;rounded=0;" vertex="1" parent="1">
          <mxGeometry x="390" y="305" width="60" height="30" as="geometry" />
        </mxCell>
        <mxCell id="0EGOPJfjjJfU0e7zZBw7-11" value="let I_am_lookin_for;" style="text;html=1;align=center;verticalAlign=middle;whiteSpace=wrap;rounded=0;" vertex="1" parent="1">
          <mxGeometry x="340" y="400" width="160" height="30" as="geometry" />
        </mxCell>
        <mxCell id="0EGOPJfjjJfU0e7zZBw7-12" value="i = 0;" style="text;html=1;align=center;verticalAlign=middle;whiteSpace=wrap;rounded=0;" vertex="1" parent="1">
          <mxGeometry x="390" y="500" width="60" height="30" as="geometry" />
        </mxCell>
        <mxCell id="0EGOPJfjjJfU0e7zZBw7-13" value="" style="edgeStyle=orthogonalEdgeStyle;rounded=0;orthogonalLoop=1;jettySize=auto;html=1;" edge="1" parent="1" source="0EGOPJfjjJfU0e7zZBw7-15" target="0EGOPJfjjJfU0e7zZBw7-17">
          <mxGeometry relative="1" as="geometry" />
        </mxCell>
        <mxCell id="0EGOPJfjjJfU0e7zZBw7-14" value="" style="edgeStyle=orthogonalEdgeStyle;rounded=0;orthogonalLoop=1;jettySize=auto;html=1;" edge="1" parent="1" source="0EGOPJfjjJfU0e7zZBw7-15" target="0EGOPJfjjJfU0e7zZBw7-21">
          <mxGeometry relative="1" as="geometry" />
        </mxCell>
        <mxCell id="0EGOPJfjjJfU0e7zZBw7-15" value="" style="rhombus;whiteSpace=wrap;html=1;" vertex="1" parent="1">
          <mxGeometry x="290" y="580" width="260" height="105" as="geometry" />
        </mxCell>
        <mxCell id="0EGOPJfjjJfU0e7zZBw7-16" value="arrey [ i ] === I_am_lookin_for;" style="text;html=1;align=center;verticalAlign=middle;whiteSpace=wrap;rounded=0;" vertex="1" parent="1">
          <mxGeometry x="325" y="617.5" width="190" height="30" as="geometry" />
        </mxCell>
        <mxCell id="0EGOPJfjjJfU0e7zZBw7-17" value="" style="whiteSpace=wrap;html=1;" vertex="1" parent="1">
          <mxGeometry x="620" y="602.5" width="120" height="60" as="geometry" />
        </mxCell>
        <mxCell id="0EGOPJfjjJfU0e7zZBw7-18" value="True" style="text;html=1;align=center;verticalAlign=middle;whiteSpace=wrap;rounded=0;" vertex="1" parent="1">
          <mxGeometry x="540" y="600" width="60" height="30" as="geometry" />
        </mxCell>
        <mxCell id="0EGOPJfjjJfU0e7zZBw7-19" value="return i;" style="text;html=1;align=center;verticalAlign=middle;whiteSpace=wrap;rounded=0;" vertex="1" parent="1">
          <mxGeometry x="640" y="610" width="90" height="37.5" as="geometry" />
        </mxCell>
        <mxCell id="0EGOPJfjjJfU0e7zZBw7-20" value="" style="edgeStyle=orthogonalEdgeStyle;rounded=0;orthogonalLoop=1;jettySize=auto;html=1;" edge="1" parent="1" source="0EGOPJfjjJfU0e7zZBw7-21" target="0EGOPJfjjJfU0e7zZBw7-24">
          <mxGeometry relative="1" as="geometry" />
        </mxCell>
        <mxCell id="0EGOPJfjjJfU0e7zZBw7-21" value="" style="whiteSpace=wrap;html=1;" vertex="1" parent="1">
          <mxGeometry x="360" y="740" width="120" height="40" as="geometry" />
        </mxCell>
        <mxCell id="0EGOPJfjjJfU0e7zZBw7-22" value="i ++;" style="text;html=1;align=center;verticalAlign=middle;whiteSpace=wrap;rounded=0;" vertex="1" parent="1">
          <mxGeometry x="390" y="745" width="60" height="30" as="geometry" />
        </mxCell>
        <mxCell id="0EGOPJfjjJfU0e7zZBw7-23" value="" style="edgeStyle=orthogonalEdgeStyle;rounded=0;orthogonalLoop=1;jettySize=auto;html=1;" edge="1" parent="1" source="0EGOPJfjjJfU0e7zZBw7-24" target="0EGOPJfjjJfU0e7zZBw7-28">
          <mxGeometry relative="1" as="geometry" />
        </mxCell>
        <mxCell id="0EGOPJfjjJfU0e7zZBw7-24" value="" style="rhombus;whiteSpace=wrap;html=1;" vertex="1" parent="1">
          <mxGeometry x="350" y="820" width="140" height="100" as="geometry" />
        </mxCell>
        <mxCell id="0EGOPJfjjJfU0e7zZBw7-25" value="i &amp;lt; arrey_lenght;" style="text;html=1;align=center;verticalAlign=middle;whiteSpace=wrap;rounded=0;" vertex="1" parent="1">
          <mxGeometry x="365" y="855" width="110" height="30" as="geometry" />
        </mxCell>
        <mxCell id="0EGOPJfjjJfU0e7zZBw7-26" value="" style="endArrow=classic;html=1;rounded=0;exitX=0;exitY=0.5;exitDx=0;exitDy=0;" edge="1" parent="1" source="0EGOPJfjjJfU0e7zZBw7-24">
          <mxGeometry width="50" height="50" relative="1" as="geometry">
            <mxPoint x="420" y="660" as="sourcePoint" />
            <mxPoint x="420" y="560" as="targetPoint" />
            <Array as="points">
              <mxPoint x="270" y="870" />
              <mxPoint x="270" y="560" />
            </Array>
          </mxGeometry>
        </mxCell>
        <mxCell id="0EGOPJfjjJfU0e7zZBw7-27" value="False" style="text;html=1;align=center;verticalAlign=middle;whiteSpace=wrap;rounded=0;" vertex="1" parent="1">
          <mxGeometry x="300" y="840" width="60" height="30" as="geometry" />
        </mxCell>
        <mxCell id="0EGOPJfjjJfU0e7zZBw7-28" value="" style="whiteSpace=wrap;html=1;" vertex="1" parent="1">
          <mxGeometry x="360" y="980" width="120" height="50" as="geometry" />
        </mxCell>
        <mxCell id="0EGOPJfjjJfU0e7zZBw7-29" value="True" style="text;html=1;align=center;verticalAlign=middle;whiteSpace=wrap;rounded=0;" vertex="1" parent="1">
          <mxGeometry x="420" y="920" width="60" height="30" as="geometry" />
        </mxCell>
        <mxCell id="0EGOPJfjjJfU0e7zZBw7-30" value="return there is none;" style="text;html=1;align=center;verticalAlign=middle;whiteSpace=wrap;rounded=0;" vertex="1" parent="1">
          <mxGeometry x="365" y="990" width="110" height="30" as="geometry" />
        </mxCell>
        <mxCell id="0EGOPJfjjJfU0e7zZBw7-31" value="" style="edgeStyle=orthogonalEdgeStyle;rounded=0;orthogonalLoop=1;jettySize=auto;html=1;" edge="1" parent="1" source="0EGOPJfjjJfU0e7zZBw7-32" target="0EGOPJfjjJfU0e7zZBw7-35">
          <mxGeometry relative="1" as="geometry" />
        </mxCell>
        <mxCell id="0EGOPJfjjJfU0e7zZBw7-32" value="" style="ellipse;whiteSpace=wrap;html=1;" vertex="1" parent="1">
          <mxGeometry x="1330" y="195" width="120" height="80" as="geometry" />
        </mxCell>
        <mxCell id="0EGOPJfjjJfU0e7zZBw7-33" value="Main" style="text;html=1;align=center;verticalAlign=middle;whiteSpace=wrap;rounded=0;" vertex="1" parent="1">
          <mxGeometry x="1360" y="220" width="60" height="30" as="geometry" />
        </mxCell>
        <mxCell id="0EGOPJfjjJfU0e7zZBw7-34" value="" style="edgeStyle=orthogonalEdgeStyle;rounded=0;orthogonalLoop=1;jettySize=auto;html=1;" edge="1" parent="1" source="0EGOPJfjjJfU0e7zZBw7-35" target="0EGOPJfjjJfU0e7zZBw7-37">
          <mxGeometry relative="1" as="geometry" />
        </mxCell>
        <mxCell id="0EGOPJfjjJfU0e7zZBw7-35" value="" style="whiteSpace=wrap;html=1;" vertex="1" parent="1">
          <mxGeometry x="1280" y="315" width="220" height="50" as="geometry" />
        </mxCell>
        <mxCell id="0EGOPJfjjJfU0e7zZBw7-36" value="" style="edgeStyle=orthogonalEdgeStyle;rounded=0;orthogonalLoop=1;jettySize=auto;html=1;" edge="1" parent="1" source="0EGOPJfjjJfU0e7zZBw7-37" target="0EGOPJfjjJfU0e7zZBw7-41">
          <mxGeometry relative="1" as="geometry" />
        </mxCell>
        <mxCell id="0EGOPJfjjJfU0e7zZBw7-37" value="" style="whiteSpace=wrap;html=1;" vertex="1" parent="1">
          <mxGeometry x="1280" y="405" width="220" height="50" as="geometry" />
        </mxCell>
        <mxCell id="0EGOPJfjjJfU0e7zZBw7-38" value="const arrey = [ 10, 25, 30, 40, 55];" style="text;html=1;align=center;verticalAlign=middle;whiteSpace=wrap;rounded=0;" vertex="1" parent="1">
          <mxGeometry x="1290" y="325" width="190" height="30" as="geometry" />
        </mxCell>
        <mxCell id="0EGOPJfjjJfU0e7zZBw7-39" value="const I_am_looking_for = 30;" style="text;html=1;align=center;verticalAlign=middle;whiteSpace=wrap;rounded=0;" vertex="1" parent="1">
          <mxGeometry x="1300" y="415" width="180" height="30" as="geometry" />
        </mxCell>
        <mxCell id="0EGOPJfjjJfU0e7zZBw7-40" value="" style="edgeStyle=orthogonalEdgeStyle;rounded=0;orthogonalLoop=1;jettySize=auto;html=1;" edge="1" parent="1" source="0EGOPJfjjJfU0e7zZBw7-41" target="0EGOPJfjjJfU0e7zZBw7-65">
          <mxGeometry relative="1" as="geometry" />
        </mxCell>
        <mxCell id="0EGOPJfjjJfU0e7zZBw7-41" value="" style="whiteSpace=wrap;html=1;" vertex="1" parent="1">
          <mxGeometry x="1230" y="505" width="320" height="50" as="geometry" />
        </mxCell>
        <mxCell id="0EGOPJfjjJfU0e7zZBw7-42" value="const result = linearSearch(arrey, I_am_looking_for)" style="text;html=1;align=center;verticalAlign=middle;whiteSpace=wrap;rounded=0;" vertex="1" parent="1">
          <mxGeometry x="1250" y="515" width="300" height="30" as="geometry" />
        </mxCell>
        <mxCell id="0EGOPJfjjJfU0e7zZBw7-43" style="edgeStyle=orthogonalEdgeStyle;rounded=0;orthogonalLoop=1;jettySize=auto;html=1;exitX=0.5;exitY=1;exitDx=0;exitDy=0;" edge="1" parent="1" source="0EGOPJfjjJfU0e7zZBw7-44" target="0EGOPJfjjJfU0e7zZBw7-46">
          <mxGeometry relative="1" as="geometry" />
        </mxCell>
        <mxCell id="0EGOPJfjjJfU0e7zZBw7-44" value="print_arrey[ i ];" style="whiteSpace=wrap;html=1;" vertex="1" parent="1">
          <mxGeometry x="959.3600000000001" y="580" width="120" height="60" as="geometry" />
        </mxCell>
        <mxCell id="0EGOPJfjjJfU0e7zZBw7-45" value="" style="edgeStyle=orthogonalEdgeStyle;rounded=0;orthogonalLoop=1;jettySize=auto;html=1;" edge="1" parent="1" source="0EGOPJfjjJfU0e7zZBw7-46" target="0EGOPJfjjJfU0e7zZBw7-48">
          <mxGeometry relative="1" as="geometry" />
        </mxCell>
        <mxCell id="0EGOPJfjjJfU0e7zZBw7-46" value="i++;" style="whiteSpace=wrap;html=1;" vertex="1" parent="1">
          <mxGeometry x="959.3600000000001" y="700" width="120" height="50" as="geometry" />
        </mxCell>
        <mxCell id="0EGOPJfjjJfU0e7zZBw7-47" value="" style="edgeStyle=orthogonalEdgeStyle;rounded=0;orthogonalLoop=1;jettySize=auto;html=1;" edge="1" parent="1" source="0EGOPJfjjJfU0e7zZBw7-48" target="0EGOPJfjjJfU0e7zZBw7-49">
          <mxGeometry relative="1" as="geometry" />
        </mxCell>
        <mxCell id="0EGOPJfjjJfU0e7zZBw7-48" value="i &amp;lt; n;" style="rhombus;whiteSpace=wrap;html=1;" vertex="1" parent="1">
          <mxGeometry x="954.36" y="795" width="130" height="95" as="geometry" />
        </mxCell>
        <mxCell id="0EGOPJfjjJfU0e7zZBw7-49" value="return arrey[ i ];" style="whiteSpace=wrap;html=1;" vertex="1" parent="1">
          <mxGeometry x="959.3600000000001" y="980" width="120" height="60" as="geometry" />
        </mxCell>
        <mxCell id="0EGOPJfjjJfU0e7zZBw7-50" value="False" style="text;html=1;align=center;verticalAlign=middle;whiteSpace=wrap;rounded=0;" vertex="1" parent="1">
          <mxGeometry x="1004.3600000000001" y="885" width="60" height="30" as="geometry" />
        </mxCell>
        <mxCell id="0EGOPJfjjJfU0e7zZBw7-51" value="" style="endArrow=classic;html=1;rounded=0;exitX=0;exitY=0.5;exitDx=0;exitDy=0;" edge="1" parent="1" source="0EGOPJfjjJfU0e7zZBw7-48">
          <mxGeometry width="50" height="50" relative="1" as="geometry">
            <mxPoint x="1170" y="830" as="sourcePoint" />
            <mxPoint x="1020" y="560" as="targetPoint" />
            <Array as="points">
              <mxPoint x="910" y="845" />
              <mxPoint x="910" y="560" />
            </Array>
          </mxGeometry>
        </mxCell>
        <mxCell id="0EGOPJfjjJfU0e7zZBw7-52" value="True" style="text;html=1;align=center;verticalAlign=middle;whiteSpace=wrap;rounded=0;" vertex="1" parent="1">
          <mxGeometry x="910" y="795" width="60" height="30" as="geometry" />
        </mxCell>
        <mxCell id="0EGOPJfjjJfU0e7zZBw7-53" value="" style="edgeStyle=orthogonalEdgeStyle;rounded=0;orthogonalLoop=1;jettySize=auto;html=1;" edge="1" parent="1" source="0EGOPJfjjJfU0e7zZBw7-54" target="0EGOPJfjjJfU0e7zZBw7-57">
          <mxGeometry relative="1" as="geometry" />
        </mxCell>
        <mxCell id="0EGOPJfjjJfU0e7zZBw7-54" value="" style="ellipse;whiteSpace=wrap;html=1;" vertex="1" parent="1">
          <mxGeometry x="959.36" y="195" width="120" height="80" as="geometry" />
        </mxCell>
        <mxCell id="0EGOPJfjjJfU0e7zZBw7-55" value="printArrey" style="text;html=1;align=center;verticalAlign=middle;whiteSpace=wrap;rounded=0;" vertex="1" parent="1">
          <mxGeometry x="989.36" y="220" width="60" height="30" as="geometry" />
        </mxCell>
        <mxCell id="0EGOPJfjjJfU0e7zZBw7-56" value="" style="edgeStyle=orthogonalEdgeStyle;rounded=0;orthogonalLoop=1;jettySize=auto;html=1;" edge="1" parent="1" source="0EGOPJfjjJfU0e7zZBw7-57" target="0EGOPJfjjJfU0e7zZBw7-59">
          <mxGeometry relative="1" as="geometry" />
        </mxCell>
        <mxCell id="0EGOPJfjjJfU0e7zZBw7-57" value="" style="whiteSpace=wrap;html=1;" vertex="1" parent="1">
          <mxGeometry x="959.36" y="315" width="120" height="40" as="geometry" />
        </mxCell>
        <mxCell id="0EGOPJfjjJfU0e7zZBw7-58" value="" style="edgeStyle=orthogonalEdgeStyle;rounded=0;orthogonalLoop=1;jettySize=auto;html=1;" edge="1" parent="1" source="0EGOPJfjjJfU0e7zZBw7-59" target="0EGOPJfjjJfU0e7zZBw7-63">
          <mxGeometry relative="1" as="geometry" />
        </mxCell>
        <mxCell id="0EGOPJfjjJfU0e7zZBw7-59" value="" style="whiteSpace=wrap;html=1;" vertex="1" parent="1">
          <mxGeometry x="959.36" y="395" width="120" height="50" as="geometry" />
        </mxCell>
        <mxCell id="0EGOPJfjjJfU0e7zZBw7-60" value="let arrey;" style="text;html=1;align=center;verticalAlign=middle;whiteSpace=wrap;rounded=0;" vertex="1" parent="1">
          <mxGeometry x="964.36" y="315" width="110" height="30" as="geometry" />
        </mxCell>
        <mxCell id="0EGOPJfjjJfU0e7zZBw7-61" value="let n = arrey.lenght;" style="text;html=1;align=center;verticalAlign=middle;whiteSpace=wrap;rounded=0;" vertex="1" parent="1">
          <mxGeometry x="965" y="405" width="110" height="30" as="geometry" />
        </mxCell>
        <mxCell id="0EGOPJfjjJfU0e7zZBw7-62" style="edgeStyle=orthogonalEdgeStyle;rounded=0;orthogonalLoop=1;jettySize=auto;html=1;exitX=0.5;exitY=1;exitDx=0;exitDy=0;entryX=0.5;entryY=0;entryDx=0;entryDy=0;" edge="1" parent="1" source="0EGOPJfjjJfU0e7zZBw7-63" target="0EGOPJfjjJfU0e7zZBw7-44">
          <mxGeometry relative="1" as="geometry" />
        </mxCell>
        <mxCell id="0EGOPJfjjJfU0e7zZBw7-63" value="" style="whiteSpace=wrap;html=1;" vertex="1" parent="1">
          <mxGeometry x="960" y="485" width="120" height="50" as="geometry" />
        </mxCell>
        <mxCell id="0EGOPJfjjJfU0e7zZBw7-64" value="i = 0;" style="text;html=1;align=center;verticalAlign=middle;whiteSpace=wrap;rounded=0;" vertex="1" parent="1">
          <mxGeometry x="990" y="495" width="60" height="30" as="geometry" />
        </mxCell>
        <mxCell id="0EGOPJfjjJfU0e7zZBw7-65" value="" style="whiteSpace=wrap;html=1;" vertex="1" parent="1">
          <mxGeometry x="1280" y="630" width="220" height="60" as="geometry" />
        </mxCell>
        <mxCell id="0EGOPJfjjJfU0e7zZBw7-66" value="printArrey( ${result} );" style="text;html=1;align=center;verticalAlign=middle;whiteSpace=wrap;rounded=0;" vertex="1" parent="1">
          <mxGeometry x="1320" y="647.5" width="150" height="30" as="geometry" />
        </mxCell>
      </root>
    </mxGraphModel>
  </diagram>
  <diagram id="2VjXT8aTi1J_g6_Rra8J" name="Binary_search">
    <mxGraphModel dx="1434" dy="844" grid="1" gridSize="10" guides="1" tooltips="1" connect="1" arrows="1" fold="1" page="1" pageScale="1" pageWidth="16000" pageHeight="22000" math="0" shadow="0">
      <root>
        <mxCell id="0" />
        <mxCell id="1" parent="0" />
        <mxCell id="4-dLALDCPKtKiLhok-03-1" value="" style="edgeStyle=orthogonalEdgeStyle;rounded=0;orthogonalLoop=1;jettySize=auto;html=1;" edge="1" parent="1" source="4-dLALDCPKtKiLhok-03-2" target="4-dLALDCPKtKiLhok-03-5">
          <mxGeometry relative="1" as="geometry" />
        </mxCell>
        <mxCell id="4-dLALDCPKtKiLhok-03-2" value="" style="ellipse;whiteSpace=wrap;html=1;" vertex="1" parent="1">
          <mxGeometry x="310" y="140" width="120" height="80" as="geometry" />
        </mxCell>
        <mxCell id="4-dLALDCPKtKiLhok-03-3" value="binarySearch" style="text;html=1;align=center;verticalAlign=middle;whiteSpace=wrap;rounded=0;" vertex="1" parent="1">
          <mxGeometry x="340" y="165" width="60" height="30" as="geometry" />
        </mxCell>
        <mxCell id="4-dLALDCPKtKiLhok-03-4" value="" style="edgeStyle=orthogonalEdgeStyle;rounded=0;orthogonalLoop=1;jettySize=auto;html=1;" edge="1" parent="1" source="4-dLALDCPKtKiLhok-03-5" target="4-dLALDCPKtKiLhok-03-7">
          <mxGeometry relative="1" as="geometry" />
        </mxCell>
        <mxCell id="4-dLALDCPKtKiLhok-03-5" value="" style="whiteSpace=wrap;html=1;" vertex="1" parent="1">
          <mxGeometry x="310" y="250" width="120" height="30" as="geometry" />
        </mxCell>
        <mxCell id="4-dLALDCPKtKiLhok-03-6" value="" style="edgeStyle=orthogonalEdgeStyle;rounded=0;orthogonalLoop=1;jettySize=auto;html=1;" edge="1" parent="1" source="4-dLALDCPKtKiLhok-03-7" target="4-dLALDCPKtKiLhok-03-9">
          <mxGeometry relative="1" as="geometry" />
        </mxCell>
        <mxCell id="4-dLALDCPKtKiLhok-03-7" value="" style="whiteSpace=wrap;html=1;" vertex="1" parent="1">
          <mxGeometry x="300" y="310" width="140" height="50" as="geometry" />
        </mxCell>
        <mxCell id="4-dLALDCPKtKiLhok-03-8" value="" style="edgeStyle=orthogonalEdgeStyle;rounded=0;orthogonalLoop=1;jettySize=auto;html=1;" edge="1" parent="1" source="4-dLALDCPKtKiLhok-03-9" target="4-dLALDCPKtKiLhok-03-14">
          <mxGeometry relative="1" as="geometry" />
        </mxCell>
        <mxCell id="4-dLALDCPKtKiLhok-03-9" value="" style="whiteSpace=wrap;html=1;" vertex="1" parent="1">
          <mxGeometry x="310" y="390" width="120" height="50" as="geometry" />
        </mxCell>
        <mxCell id="4-dLALDCPKtKiLhok-03-10" value="let arrey;" style="text;html=1;align=center;verticalAlign=middle;whiteSpace=wrap;rounded=0;" vertex="1" parent="1">
          <mxGeometry x="340" y="250" width="60" height="30" as="geometry" />
        </mxCell>
        <mxCell id="4-dLALDCPKtKiLhok-03-11" value="let I_am_lookin_for;" style="text;html=1;align=center;verticalAlign=middle;whiteSpace=wrap;rounded=0;" vertex="1" parent="1">
          <mxGeometry x="290" y="320" width="160" height="30" as="geometry" />
        </mxCell>
        <mxCell id="4-dLALDCPKtKiLhok-03-12" value="let left = 0;" style="text;html=1;align=center;verticalAlign=middle;whiteSpace=wrap;rounded=0;" vertex="1" parent="1">
          <mxGeometry x="340" y="400" width="60" height="30" as="geometry" />
        </mxCell>
        <mxCell id="4-dLALDCPKtKiLhok-03-13" value="" style="edgeStyle=orthogonalEdgeStyle;rounded=0;orthogonalLoop=1;jettySize=auto;html=1;" edge="1" parent="1" source="4-dLALDCPKtKiLhok-03-14" target="4-dLALDCPKtKiLhok-03-17">
          <mxGeometry relative="1" as="geometry" />
        </mxCell>
        <mxCell id="4-dLALDCPKtKiLhok-03-14" value="" style="whiteSpace=wrap;html=1;" vertex="1" parent="1">
          <mxGeometry x="280" y="470" width="180" height="40" as="geometry" />
        </mxCell>
        <mxCell id="4-dLALDCPKtKiLhok-03-15" value="let right = arrey.lenght - 1;" style="text;html=1;align=center;verticalAlign=middle;whiteSpace=wrap;rounded=0;" vertex="1" parent="1">
          <mxGeometry x="285" y="475" width="170" height="30" as="geometry" />
        </mxCell>
        <mxCell id="4-dLALDCPKtKiLhok-03-16" value="" style="edgeStyle=orthogonalEdgeStyle;rounded=0;orthogonalLoop=1;jettySize=auto;html=1;" edge="1" parent="1" source="4-dLALDCPKtKiLhok-03-17" target="4-dLALDCPKtKiLhok-03-20">
          <mxGeometry relative="1" as="geometry" />
        </mxCell>
        <mxCell id="4-dLALDCPKtKiLhok-03-17" value="" style="rhombus;whiteSpace=wrap;html=1;" vertex="1" parent="1">
          <mxGeometry x="290" y="540" width="160" height="90" as="geometry" />
        </mxCell>
        <mxCell id="4-dLALDCPKtKiLhok-03-18" value="left &amp;lt;= right;" style="text;html=1;align=center;verticalAlign=middle;whiteSpace=wrap;rounded=0;" vertex="1" parent="1">
          <mxGeometry x="315" y="570" width="110" height="30" as="geometry" />
        </mxCell>
        <mxCell id="4-dLALDCPKtKiLhok-03-19" value="" style="edgeStyle=orthogonalEdgeStyle;rounded=0;orthogonalLoop=1;jettySize=auto;html=1;" edge="1" parent="1" source="4-dLALDCPKtKiLhok-03-20" target="4-dLALDCPKtKiLhok-03-24">
          <mxGeometry relative="1" as="geometry" />
        </mxCell>
        <mxCell id="4-dLALDCPKtKiLhok-03-20" value="" style="whiteSpace=wrap;html=1;" vertex="1" parent="1">
          <mxGeometry x="270" y="660" width="200" height="50" as="geometry" />
        </mxCell>
        <mxCell id="4-dLALDCPKtKiLhok-03-21" value="let middle = (left + right ) &amp;gt;&amp;gt; 1;" style="text;html=1;align=center;verticalAlign=middle;whiteSpace=wrap;rounded=0;" vertex="1" parent="1">
          <mxGeometry x="285" y="670" width="170" height="30" as="geometry" />
        </mxCell>
        <mxCell id="4-dLALDCPKtKiLhok-03-22" value="" style="edgeStyle=orthogonalEdgeStyle;rounded=0;orthogonalLoop=1;jettySize=auto;html=1;" edge="1" parent="1" source="4-dLALDCPKtKiLhok-03-24" target="4-dLALDCPKtKiLhok-03-26">
          <mxGeometry relative="1" as="geometry" />
        </mxCell>
        <mxCell id="4-dLALDCPKtKiLhok-03-23" value="" style="edgeStyle=orthogonalEdgeStyle;rounded=0;orthogonalLoop=1;jettySize=auto;html=1;" edge="1" parent="1" source="4-dLALDCPKtKiLhok-03-24" target="4-dLALDCPKtKiLhok-03-31">
          <mxGeometry relative="1" as="geometry" />
        </mxCell>
        <mxCell id="4-dLALDCPKtKiLhok-03-24" value="" style="rhombus;whiteSpace=wrap;html=1;" vertex="1" parent="1">
          <mxGeometry x="230" y="750" width="280" height="105" as="geometry" />
        </mxCell>
        <mxCell id="4-dLALDCPKtKiLhok-03-25" value="arrey[middle] == I_am_looking_for" style="text;html=1;align=center;verticalAlign=middle;whiteSpace=wrap;rounded=0;" vertex="1" parent="1">
          <mxGeometry x="260" y="790" width="210" height="30" as="geometry" />
        </mxCell>
        <mxCell id="4-dLALDCPKtKiLhok-03-26" value="" style="whiteSpace=wrap;html=1;" vertex="1" parent="1">
          <mxGeometry x="580" y="772.5" width="120" height="60" as="geometry" />
        </mxCell>
        <mxCell id="4-dLALDCPKtKiLhok-03-27" value="True" style="text;html=1;align=center;verticalAlign=middle;whiteSpace=wrap;rounded=0;" vertex="1" parent="1">
          <mxGeometry x="500" y="770" width="60" height="30" as="geometry" />
        </mxCell>
        <mxCell id="4-dLALDCPKtKiLhok-03-28" value="return middle;" style="text;html=1;align=center;verticalAlign=middle;whiteSpace=wrap;rounded=0;" vertex="1" parent="1">
          <mxGeometry x="590" y="787.5" width="110" height="30" as="geometry" />
        </mxCell>
        <mxCell id="4-dLALDCPKtKiLhok-03-29" value="" style="edgeStyle=orthogonalEdgeStyle;rounded=0;orthogonalLoop=1;jettySize=auto;html=1;" edge="1" parent="1" source="4-dLALDCPKtKiLhok-03-31" target="4-dLALDCPKtKiLhok-03-34">
          <mxGeometry relative="1" as="geometry" />
        </mxCell>
        <mxCell id="4-dLALDCPKtKiLhok-03-30" value="" style="edgeStyle=orthogonalEdgeStyle;rounded=0;orthogonalLoop=1;jettySize=auto;html=1;" edge="1" parent="1" source="4-dLALDCPKtKiLhok-03-31">
          <mxGeometry relative="1" as="geometry">
            <mxPoint x="370" y="1080" as="targetPoint" />
          </mxGeometry>
        </mxCell>
        <mxCell id="4-dLALDCPKtKiLhok-03-31" value="" style="rhombus;whiteSpace=wrap;html=1;" vertex="1" parent="1">
          <mxGeometry x="230" y="900" width="280" height="127.5" as="geometry" />
        </mxCell>
        <mxCell id="4-dLALDCPKtKiLhok-03-32" value="False" style="text;html=1;align=center;verticalAlign=middle;whiteSpace=wrap;rounded=0;" vertex="1" parent="1">
          <mxGeometry x="370" y="855" width="60" height="30" as="geometry" />
        </mxCell>
        <mxCell id="4-dLALDCPKtKiLhok-03-33" value="arrey[middle] &amp;lt; I_am_looking_for;" style="text;html=1;align=center;verticalAlign=middle;whiteSpace=wrap;rounded=0;" vertex="1" parent="1">
          <mxGeometry x="270" y="948.75" width="200" height="30" as="geometry" />
        </mxCell>
        <mxCell id="4-dLALDCPKtKiLhok-03-34" value="" style="whiteSpace=wrap;html=1;" vertex="1" parent="1">
          <mxGeometry x="590" y="933.75" width="110" height="60" as="geometry" />
        </mxCell>
        <mxCell id="4-dLALDCPKtKiLhok-03-35" value="True" style="text;html=1;align=center;verticalAlign=middle;whiteSpace=wrap;rounded=0;" vertex="1" parent="1">
          <mxGeometry x="510" y="930" width="60" height="30" as="geometry" />
        </mxCell>
        <mxCell id="4-dLALDCPKtKiLhok-03-36" value="left = middle +1;" style="text;html=1;align=center;verticalAlign=middle;whiteSpace=wrap;rounded=0;" vertex="1" parent="1">
          <mxGeometry x="600" y="948.75" width="90" height="30" as="geometry" />
        </mxCell>
        <mxCell id="4-dLALDCPKtKiLhok-03-37" value="" style="rounded=0;whiteSpace=wrap;html=1;" vertex="1" parent="1">
          <mxGeometry x="310" y="1080" width="120" height="60" as="geometry" />
        </mxCell>
        <mxCell id="4-dLALDCPKtKiLhok-03-38" value="right = middle - 1;" style="text;html=1;align=center;verticalAlign=middle;whiteSpace=wrap;rounded=0;" vertex="1" parent="1">
          <mxGeometry x="325" y="1095" width="100" height="30" as="geometry" />
        </mxCell>
        <mxCell id="4-dLALDCPKtKiLhok-03-39" value="" style="endArrow=classic;html=1;rounded=0;exitX=1;exitY=0.5;exitDx=0;exitDy=0;" edge="1" parent="1" source="4-dLALDCPKtKiLhok-03-34">
          <mxGeometry width="50" height="50" relative="1" as="geometry">
            <mxPoint x="580" y="680" as="sourcePoint" />
            <mxPoint x="370" y="530" as="targetPoint" />
            <Array as="points">
              <mxPoint x="740" y="964" />
              <mxPoint x="740" y="530" />
            </Array>
          </mxGeometry>
        </mxCell>
        <mxCell id="4-dLALDCPKtKiLhok-03-40" value="False" style="text;html=1;align=center;verticalAlign=middle;whiteSpace=wrap;rounded=0;" vertex="1" parent="1">
          <mxGeometry x="370" y="1027.5" width="60" height="40" as="geometry" />
        </mxCell>
        <mxCell id="4-dLALDCPKtKiLhok-03-41" value="True" style="text;html=1;align=center;verticalAlign=middle;whiteSpace=wrap;rounded=0;" vertex="1" parent="1">
          <mxGeometry x="370" y="630" width="60" height="30" as="geometry" />
        </mxCell>
        <mxCell id="4-dLALDCPKtKiLhok-03-42" value="" style="rounded=0;whiteSpace=wrap;html=1;" vertex="1" parent="1">
          <mxGeometry x="310" y="1180" width="120" height="60" as="geometry" />
        </mxCell>
        <mxCell id="4-dLALDCPKtKiLhok-03-43" value="" style="endArrow=classic;html=1;rounded=0;exitX=0;exitY=0.5;exitDx=0;exitDy=0;entryX=0;entryY=0.5;entryDx=0;entryDy=0;" edge="1" parent="1" source="4-dLALDCPKtKiLhok-03-17" target="4-dLALDCPKtKiLhok-03-42">
          <mxGeometry width="50" height="50" relative="1" as="geometry">
            <mxPoint x="580" y="1040" as="sourcePoint" />
            <mxPoint x="300" y="1210" as="targetPoint" />
            <Array as="points">
              <mxPoint x="200" y="585" />
              <mxPoint x="200" y="1210" />
            </Array>
          </mxGeometry>
        </mxCell>
        <mxCell id="4-dLALDCPKtKiLhok-03-44" value="return there is none;" style="text;html=1;align=center;verticalAlign=middle;whiteSpace=wrap;rounded=0;" vertex="1" parent="1">
          <mxGeometry x="320" y="1195" width="110" height="30" as="geometry" />
        </mxCell>
        <mxCell id="4-dLALDCPKtKiLhok-03-45" value="" style="endArrow=classic;html=1;rounded=0;exitX=1;exitY=0.5;exitDx=0;exitDy=0;" edge="1" parent="1" source="4-dLALDCPKtKiLhok-03-37">
          <mxGeometry width="50" height="50" relative="1" as="geometry">
            <mxPoint x="180" y="940" as="sourcePoint" />
            <mxPoint x="740" y="970" as="targetPoint" />
            <Array as="points">
              <mxPoint x="740" y="1110" />
            </Array>
          </mxGeometry>
        </mxCell>
        <mxCell id="4-dLALDCPKtKiLhok-03-46" value="False" style="text;html=1;align=center;verticalAlign=middle;whiteSpace=wrap;rounded=0;" vertex="1" parent="1">
          <mxGeometry x="240" y="590" width="60" height="30" as="geometry" />
        </mxCell>
        <mxCell id="4-dLALDCPKtKiLhok-03-47" style="edgeStyle=orthogonalEdgeStyle;rounded=0;orthogonalLoop=1;jettySize=auto;html=1;exitX=0.5;exitY=1;exitDx=0;exitDy=0;" edge="1" parent="1" source="4-dLALDCPKtKiLhok-03-48" target="4-dLALDCPKtKiLhok-03-50">
          <mxGeometry relative="1" as="geometry" />
        </mxCell>
        <mxCell id="4-dLALDCPKtKiLhok-03-48" value="print_arrey[ i ];" style="whiteSpace=wrap;html=1;" vertex="1" parent="1">
          <mxGeometry x="959.3600000000001" y="445" width="120" height="60" as="geometry" />
        </mxCell>
        <mxCell id="4-dLALDCPKtKiLhok-03-49" value="" style="edgeStyle=orthogonalEdgeStyle;rounded=0;orthogonalLoop=1;jettySize=auto;html=1;" edge="1" parent="1" source="4-dLALDCPKtKiLhok-03-50" target="4-dLALDCPKtKiLhok-03-52">
          <mxGeometry relative="1" as="geometry" />
        </mxCell>
        <mxCell id="4-dLALDCPKtKiLhok-03-50" value="i++;" style="whiteSpace=wrap;html=1;" vertex="1" parent="1">
          <mxGeometry x="959.3600000000001" y="565" width="120" height="50" as="geometry" />
        </mxCell>
        <mxCell id="4-dLALDCPKtKiLhok-03-51" value="" style="edgeStyle=orthogonalEdgeStyle;rounded=0;orthogonalLoop=1;jettySize=auto;html=1;" edge="1" parent="1" source="4-dLALDCPKtKiLhok-03-52" target="4-dLALDCPKtKiLhok-03-53">
          <mxGeometry relative="1" as="geometry" />
        </mxCell>
        <mxCell id="4-dLALDCPKtKiLhok-03-52" value="i &amp;lt; arrey.lenght;" style="rhombus;whiteSpace=wrap;html=1;" vertex="1" parent="1">
          <mxGeometry x="954.3600000000001" y="660" width="130" height="95" as="geometry" />
        </mxCell>
        <mxCell id="4-dLALDCPKtKiLhok-03-53" value="return arrey[ i ];" style="whiteSpace=wrap;html=1;" vertex="1" parent="1">
          <mxGeometry x="959.3600000000001" y="845" width="120" height="60" as="geometry" />
        </mxCell>
        <mxCell id="4-dLALDCPKtKiLhok-03-54" value="False" style="text;html=1;align=center;verticalAlign=middle;whiteSpace=wrap;rounded=0;" vertex="1" parent="1">
          <mxGeometry x="1014.3600000000001" y="750" width="60" height="30" as="geometry" />
        </mxCell>
        <mxCell id="4-dLALDCPKtKiLhok-03-55" value="" style="endArrow=classic;html=1;rounded=0;exitX=0;exitY=0.5;exitDx=0;exitDy=0;" edge="1" parent="1" source="4-dLALDCPKtKiLhok-03-52">
          <mxGeometry width="50" height="50" relative="1" as="geometry">
            <mxPoint x="1170" y="695" as="sourcePoint" />
            <mxPoint x="1020" y="425" as="targetPoint" />
            <Array as="points">
              <mxPoint x="910" y="710" />
              <mxPoint x="910" y="425" />
            </Array>
          </mxGeometry>
        </mxCell>
        <mxCell id="4-dLALDCPKtKiLhok-03-56" value="True" style="text;html=1;align=center;verticalAlign=middle;whiteSpace=wrap;rounded=0;" vertex="1" parent="1">
          <mxGeometry x="910" y="660" width="60" height="30" as="geometry" />
        </mxCell>
        <mxCell id="4-dLALDCPKtKiLhok-03-57" value="" style="edgeStyle=orthogonalEdgeStyle;rounded=0;orthogonalLoop=1;jettySize=auto;html=1;" edge="1" parent="1" source="4-dLALDCPKtKiLhok-03-58" target="4-dLALDCPKtKiLhok-03-61">
          <mxGeometry relative="1" as="geometry" />
        </mxCell>
        <mxCell id="4-dLALDCPKtKiLhok-03-58" value="" style="ellipse;whiteSpace=wrap;html=1;" vertex="1" parent="1">
          <mxGeometry x="959.3600000000001" y="148.75" width="120" height="80" as="geometry" />
        </mxCell>
        <mxCell id="4-dLALDCPKtKiLhok-03-59" value="printArrey" style="text;html=1;align=center;verticalAlign=middle;whiteSpace=wrap;rounded=0;" vertex="1" parent="1">
          <mxGeometry x="989.3600000000001" y="173.75" width="60" height="30" as="geometry" />
        </mxCell>
        <mxCell id="4-dLALDCPKtKiLhok-03-60" value="" style="edgeStyle=orthogonalEdgeStyle;rounded=0;orthogonalLoop=1;jettySize=auto;html=1;" edge="1" parent="1" source="4-dLALDCPKtKiLhok-03-61">
          <mxGeometry relative="1" as="geometry">
            <mxPoint x="1019.3600000000001" y="348.75" as="targetPoint" />
          </mxGeometry>
        </mxCell>
        <mxCell id="4-dLALDCPKtKiLhok-03-61" value="" style="whiteSpace=wrap;html=1;" vertex="1" parent="1">
          <mxGeometry x="959.3600000000001" y="268.75" width="120" height="40" as="geometry" />
        </mxCell>
        <mxCell id="4-dLALDCPKtKiLhok-03-62" value="let arrey;" style="text;html=1;align=center;verticalAlign=middle;whiteSpace=wrap;rounded=0;" vertex="1" parent="1">
          <mxGeometry x="964.3600000000001" y="268.75" width="110" height="30" as="geometry" />
        </mxCell>
        <mxCell id="4-dLALDCPKtKiLhok-03-63" style="edgeStyle=orthogonalEdgeStyle;rounded=0;orthogonalLoop=1;jettySize=auto;html=1;exitX=0.5;exitY=1;exitDx=0;exitDy=0;entryX=0.5;entryY=0;entryDx=0;entryDy=0;" edge="1" parent="1" source="4-dLALDCPKtKiLhok-03-64" target="4-dLALDCPKtKiLhok-03-48">
          <mxGeometry relative="1" as="geometry" />
        </mxCell>
        <mxCell id="4-dLALDCPKtKiLhok-03-64" value="" style="whiteSpace=wrap;html=1;" vertex="1" parent="1">
          <mxGeometry x="960" y="350" width="120" height="50" as="geometry" />
        </mxCell>
        <mxCell id="4-dLALDCPKtKiLhok-03-65" value="i = 0;" style="text;html=1;align=center;verticalAlign=middle;whiteSpace=wrap;rounded=0;" vertex="1" parent="1">
          <mxGeometry x="990" y="360" width="50" height="30" as="geometry" />
        </mxCell>
        <mxCell id="4-dLALDCPKtKiLhok-03-66" value="" style="edgeStyle=orthogonalEdgeStyle;rounded=0;orthogonalLoop=1;jettySize=auto;html=1;" edge="1" parent="1" source="4-dLALDCPKtKiLhok-03-67" target="4-dLALDCPKtKiLhok-03-70">
          <mxGeometry relative="1" as="geometry" />
        </mxCell>
        <mxCell id="4-dLALDCPKtKiLhok-03-67" value="" style="ellipse;whiteSpace=wrap;html=1;" vertex="1" parent="1">
          <mxGeometry x="1340" y="148.75" width="120" height="80" as="geometry" />
        </mxCell>
        <mxCell id="4-dLALDCPKtKiLhok-03-68" value="Main" style="text;html=1;align=center;verticalAlign=middle;whiteSpace=wrap;rounded=0;" vertex="1" parent="1">
          <mxGeometry x="1370" y="173.75" width="60" height="30" as="geometry" />
        </mxCell>
        <mxCell id="4-dLALDCPKtKiLhok-03-69" value="" style="edgeStyle=orthogonalEdgeStyle;rounded=0;orthogonalLoop=1;jettySize=auto;html=1;" edge="1" parent="1" source="4-dLALDCPKtKiLhok-03-70" target="4-dLALDCPKtKiLhok-03-72">
          <mxGeometry relative="1" as="geometry" />
        </mxCell>
        <mxCell id="4-dLALDCPKtKiLhok-03-70" value="" style="whiteSpace=wrap;html=1;" vertex="1" parent="1">
          <mxGeometry x="1290" y="268.75" width="220" height="50" as="geometry" />
        </mxCell>
        <mxCell id="4-dLALDCPKtKiLhok-03-71" value="" style="edgeStyle=orthogonalEdgeStyle;rounded=0;orthogonalLoop=1;jettySize=auto;html=1;" edge="1" parent="1" source="4-dLALDCPKtKiLhok-03-72" target="4-dLALDCPKtKiLhok-03-76">
          <mxGeometry relative="1" as="geometry" />
        </mxCell>
        <mxCell id="4-dLALDCPKtKiLhok-03-72" value="" style="whiteSpace=wrap;html=1;" vertex="1" parent="1">
          <mxGeometry x="1290" y="358.75" width="220" height="50" as="geometry" />
        </mxCell>
        <mxCell id="4-dLALDCPKtKiLhok-03-73" value="const arrey = [ 10, 25, 30, 40, 55];" style="text;html=1;align=center;verticalAlign=middle;whiteSpace=wrap;rounded=0;" vertex="1" parent="1">
          <mxGeometry x="1310" y="278.75" width="190" height="30" as="geometry" />
        </mxCell>
        <mxCell id="4-dLALDCPKtKiLhok-03-74" value="const I_am_looking_for = 30;" style="text;html=1;align=center;verticalAlign=middle;whiteSpace=wrap;rounded=0;" vertex="1" parent="1">
          <mxGeometry x="1310" y="368.75" width="180" height="30" as="geometry" />
        </mxCell>
        <mxCell id="4-dLALDCPKtKiLhok-03-75" value="" style="edgeStyle=orthogonalEdgeStyle;rounded=0;orthogonalLoop=1;jettySize=auto;html=1;" edge="1" parent="1" source="4-dLALDCPKtKiLhok-03-76" target="4-dLALDCPKtKiLhok-03-78">
          <mxGeometry relative="1" as="geometry" />
        </mxCell>
        <mxCell id="4-dLALDCPKtKiLhok-03-76" value="" style="whiteSpace=wrap;html=1;" vertex="1" parent="1">
          <mxGeometry x="1240" y="458.75" width="320" height="50" as="geometry" />
        </mxCell>
        <mxCell id="4-dLALDCPKtKiLhok-03-77" value="const result = binarySearch(arrey, I_am_looking_for)" style="text;html=1;align=center;verticalAlign=middle;whiteSpace=wrap;rounded=0;" vertex="1" parent="1">
          <mxGeometry x="1260" y="468.75" width="300" height="30" as="geometry" />
        </mxCell>
        <mxCell id="4-dLALDCPKtKiLhok-03-78" value="" style="whiteSpace=wrap;html=1;" vertex="1" parent="1">
          <mxGeometry x="1290" y="583.75" width="220" height="60" as="geometry" />
        </mxCell>
        <mxCell id="4-dLALDCPKtKiLhok-03-79" value="printArrey( ${result} );" style="text;html=1;align=center;verticalAlign=middle;whiteSpace=wrap;rounded=0;" vertex="1" parent="1">
          <mxGeometry x="1330" y="601.25" width="150" height="30" as="geometry" />
        </mxCell>
        <mxCell id="4-dLALDCPKtKiLhok-03-80" value="arrey = [0, 1, 2, 3, 4, 5]" style="text;html=1;align=center;verticalAlign=middle;whiteSpace=wrap;rounded=0;" vertex="1" parent="1">
          <mxGeometry x="670" y="1225" width="610" height="30" as="geometry" />
        </mxCell>
        <mxCell id="4-dLALDCPKtKiLhok-03-81" value="arrey.lenght / 2" style="text;html=1;align=center;verticalAlign=middle;whiteSpace=wrap;rounded=0;" vertex="1" parent="1">
          <mxGeometry x="752.5" y="1195" width="445" height="30" as="geometry" />
        </mxCell>
        <mxCell id="4-dLALDCPKtKiLhok-03-82" value="0 - arrey.lenght /2 -1&amp;nbsp; &amp;nbsp; &amp;nbsp; &amp;nbsp;arrey.lenght / 2&amp;nbsp; - arrey.lenght -1" style="text;html=1;align=center;verticalAlign=middle;whiteSpace=wrap;rounded=0;" vertex="1" parent="1">
          <mxGeometry x="780" y="1255" width="430" height="30" as="geometry" />
        </mxCell>
      </root>
    </mxGraphModel>
  </diagram>
  <diagram id="FNywp7U1UtvvYyg-Citr" name="Interpolation_search">
    <mxGraphModel dx="1434" dy="844" grid="1" gridSize="12" guides="1" tooltips="1" connect="1" arrows="1" fold="1" page="1" pageScale="1" pageWidth="16000" pageHeight="22000" math="0" shadow="0">
      <root>
        <mxCell id="0" />
        <mxCell id="1" parent="0" />
        <mxCell id="EdqdQXqLjgvHGHP06fCY-8" value="" style="edgeStyle=orthogonalEdgeStyle;rounded=0;orthogonalLoop=1;jettySize=auto;html=1;" edge="1" parent="1" source="EdqdQXqLjgvHGHP06fCY-5" target="EdqdQXqLjgvHGHP06fCY-7">
          <mxGeometry relative="1" as="geometry" />
        </mxCell>
        <mxCell id="EdqdQXqLjgvHGHP06fCY-5" value="" style="ellipse;whiteSpace=wrap;html=1;" vertex="1" parent="1">
          <mxGeometry x="408" y="60" width="228" height="80" as="geometry" />
        </mxCell>
        <mxCell id="EdqdQXqLjgvHGHP06fCY-6" value="interpolationSearch( arrey, lo, hi, x )" style="text;html=1;align=center;verticalAlign=middle;whiteSpace=wrap;rounded=0;" vertex="1" parent="1">
          <mxGeometry x="408" y="85" width="228" height="30" as="geometry" />
        </mxCell>
        <mxCell id="EdqdQXqLjgvHGHP06fCY-18" value="" style="edgeStyle=orthogonalEdgeStyle;rounded=0;orthogonalLoop=1;jettySize=auto;html=1;" edge="1" parent="1" source="EdqdQXqLjgvHGHP06fCY-7" target="EdqdQXqLjgvHGHP06fCY-17">
          <mxGeometry relative="1" as="geometry" />
        </mxCell>
        <mxCell id="EdqdQXqLjgvHGHP06fCY-7" value="" style="whiteSpace=wrap;html=1;" vertex="1" parent="1">
          <mxGeometry x="462" y="192" width="120" height="48" as="geometry" />
        </mxCell>
        <mxCell id="EdqdQXqLjgvHGHP06fCY-9" value="pos;" style="text;html=1;align=center;verticalAlign=middle;whiteSpace=wrap;rounded=0;" vertex="1" parent="1">
          <mxGeometry x="492" y="201" width="60" height="30" as="geometry" />
        </mxCell>
        <mxCell id="EdqdQXqLjgvHGHP06fCY-14" value="" style="edgeStyle=orthogonalEdgeStyle;rounded=0;orthogonalLoop=1;jettySize=auto;html=1;" edge="1" parent="1" source="EdqdQXqLjgvHGHP06fCY-10" target="EdqdQXqLjgvHGHP06fCY-13">
          <mxGeometry relative="1" as="geometry" />
        </mxCell>
        <mxCell id="EdqdQXqLjgvHGHP06fCY-51" style="edgeStyle=orthogonalEdgeStyle;rounded=0;orthogonalLoop=1;jettySize=auto;html=1;exitX=1;exitY=0.5;exitDx=0;exitDy=0;entryX=0.5;entryY=0;entryDx=0;entryDy=0;" edge="1" parent="1" source="EdqdQXqLjgvHGHP06fCY-10" target="EdqdQXqLjgvHGHP06fCY-47">
          <mxGeometry relative="1" as="geometry" />
        </mxCell>
        <mxCell id="EdqdQXqLjgvHGHP06fCY-10" value="" style="rhombus;whiteSpace=wrap;html=1;" vertex="1" parent="1">
          <mxGeometry x="348" y="384" width="348" height="132" as="geometry" />
        </mxCell>
        <mxCell id="EdqdQXqLjgvHGHP06fCY-12" value="lo &amp;lt;= hi &amp;amp;&amp;amp; x &amp;gt;= arrey [ lo ] &amp;amp;&amp;amp; x &amp;lt;= arrey [ hi ]" style="text;html=1;align=center;verticalAlign=middle;whiteSpace=wrap;rounded=0;" vertex="1" parent="1">
          <mxGeometry x="396" y="435" width="252" height="30" as="geometry" />
        </mxCell>
        <mxCell id="EdqdQXqLjgvHGHP06fCY-21" value="" style="edgeStyle=orthogonalEdgeStyle;rounded=0;orthogonalLoop=1;jettySize=auto;html=1;" edge="1" parent="1" source="EdqdQXqLjgvHGHP06fCY-13" target="EdqdQXqLjgvHGHP06fCY-20">
          <mxGeometry relative="1" as="geometry" />
        </mxCell>
        <mxCell id="EdqdQXqLjgvHGHP06fCY-13" value="" style="whiteSpace=wrap;html=1;" vertex="1" parent="1">
          <mxGeometry x="324" y="576" width="396" height="60" as="geometry" />
        </mxCell>
        <mxCell id="EdqdQXqLjgvHGHP06fCY-15" value="pos = lo + (((hi - lo) / (arrey [ hi ] - arrey [ lo ])) * (x - arrey [ lo ]));" style="text;html=1;align=center;verticalAlign=middle;whiteSpace=wrap;rounded=0;" vertex="1" parent="1">
          <mxGeometry x="342" y="588" width="360" height="30" as="geometry" />
        </mxCell>
        <mxCell id="EdqdQXqLjgvHGHP06fCY-16" value="True" style="text;html=1;align=center;verticalAlign=middle;whiteSpace=wrap;rounded=0;" vertex="1" parent="1">
          <mxGeometry x="528" y="516" width="60" height="30" as="geometry" />
        </mxCell>
        <mxCell id="EdqdQXqLjgvHGHP06fCY-19" style="edgeStyle=orthogonalEdgeStyle;rounded=0;orthogonalLoop=1;jettySize=auto;html=1;exitX=0.5;exitY=1;exitDx=0;exitDy=0;entryX=0.5;entryY=0;entryDx=0;entryDy=0;" edge="1" parent="1" source="EdqdQXqLjgvHGHP06fCY-17" target="EdqdQXqLjgvHGHP06fCY-10">
          <mxGeometry relative="1" as="geometry" />
        </mxCell>
        <mxCell id="EdqdQXqLjgvHGHP06fCY-17" value="arrey = [ ];&lt;div&gt;x;&lt;/div&gt;" style="whiteSpace=wrap;html=1;" vertex="1" parent="1">
          <mxGeometry x="462" y="276" width="120" height="48" as="geometry" />
        </mxCell>
        <mxCell id="EdqdQXqLjgvHGHP06fCY-24" value="" style="edgeStyle=orthogonalEdgeStyle;rounded=0;orthogonalLoop=1;jettySize=auto;html=1;" edge="1" parent="1" source="EdqdQXqLjgvHGHP06fCY-20" target="EdqdQXqLjgvHGHP06fCY-23">
          <mxGeometry relative="1" as="geometry" />
        </mxCell>
        <mxCell id="EdqdQXqLjgvHGHP06fCY-41" style="edgeStyle=orthogonalEdgeStyle;rounded=0;orthogonalLoop=1;jettySize=auto;html=1;exitX=1;exitY=0.5;exitDx=0;exitDy=0;entryX=0;entryY=0.5;entryDx=0;entryDy=0;" edge="1" parent="1" source="EdqdQXqLjgvHGHP06fCY-20" target="EdqdQXqLjgvHGHP06fCY-30">
          <mxGeometry relative="1" as="geometry" />
        </mxCell>
        <mxCell id="EdqdQXqLjgvHGHP06fCY-20" value="" style="rhombus;whiteSpace=wrap;html=1;" vertex="1" parent="1">
          <mxGeometry x="456" y="684" width="132" height="102" as="geometry" />
        </mxCell>
        <mxCell id="EdqdQXqLjgvHGHP06fCY-22" value="arrey [ pos ] == x" style="text;html=1;align=center;verticalAlign=middle;whiteSpace=wrap;rounded=0;" vertex="1" parent="1">
          <mxGeometry x="468" y="720" width="108" height="30" as="geometry" />
        </mxCell>
        <mxCell id="EdqdQXqLjgvHGHP06fCY-23" value="" style="whiteSpace=wrap;html=1;" vertex="1" parent="1">
          <mxGeometry x="462" y="840" width="120" height="48" as="geometry" />
        </mxCell>
        <mxCell id="EdqdQXqLjgvHGHP06fCY-25" value="True" style="text;html=1;align=center;verticalAlign=middle;whiteSpace=wrap;rounded=0;" vertex="1" parent="1">
          <mxGeometry x="522" y="786" width="60" height="30" as="geometry" />
        </mxCell>
        <mxCell id="EdqdQXqLjgvHGHP06fCY-26" value="return pos;" style="text;html=1;align=center;verticalAlign=middle;whiteSpace=wrap;rounded=0;" vertex="1" parent="1">
          <mxGeometry x="492" y="849" width="60" height="30" as="geometry" />
        </mxCell>
        <mxCell id="EdqdQXqLjgvHGHP06fCY-29" value="" style="edgeStyle=orthogonalEdgeStyle;rounded=0;orthogonalLoop=1;jettySize=auto;html=1;" edge="1" parent="1" source="EdqdQXqLjgvHGHP06fCY-30" target="EdqdQXqLjgvHGHP06fCY-32">
          <mxGeometry relative="1" as="geometry" />
        </mxCell>
        <mxCell id="EdqdQXqLjgvHGHP06fCY-42" style="edgeStyle=orthogonalEdgeStyle;rounded=0;orthogonalLoop=1;jettySize=auto;html=1;exitX=1;exitY=0.5;exitDx=0;exitDy=0;" edge="1" parent="1" source="EdqdQXqLjgvHGHP06fCY-30" target="EdqdQXqLjgvHGHP06fCY-36">
          <mxGeometry relative="1" as="geometry" />
        </mxCell>
        <mxCell id="EdqdQXqLjgvHGHP06fCY-30" value="" style="rhombus;whiteSpace=wrap;html=1;" vertex="1" parent="1">
          <mxGeometry x="732" y="684" width="132" height="102" as="geometry" />
        </mxCell>
        <mxCell id="EdqdQXqLjgvHGHP06fCY-31" value="arrey [ pos ] == x" style="text;html=1;align=center;verticalAlign=middle;whiteSpace=wrap;rounded=0;" vertex="1" parent="1">
          <mxGeometry x="744" y="720" width="108" height="30" as="geometry" />
        </mxCell>
        <mxCell id="EdqdQXqLjgvHGHP06fCY-32" value="" style="whiteSpace=wrap;html=1;" vertex="1" parent="1">
          <mxGeometry x="660" y="840" width="276" height="48" as="geometry" />
        </mxCell>
        <mxCell id="EdqdQXqLjgvHGHP06fCY-33" value="True" style="text;html=1;align=center;verticalAlign=middle;whiteSpace=wrap;rounded=0;" vertex="1" parent="1">
          <mxGeometry x="798" y="786" width="60" height="30" as="geometry" />
        </mxCell>
        <mxCell id="EdqdQXqLjgvHGHP06fCY-34" value="return interpolationSearch (arrey, pos + 1, hi, x);" style="text;html=1;align=center;verticalAlign=middle;whiteSpace=wrap;rounded=0;" vertex="1" parent="1">
          <mxGeometry x="666" y="849" width="264" height="30" as="geometry" />
        </mxCell>
        <mxCell id="EdqdQXqLjgvHGHP06fCY-35" value="" style="edgeStyle=orthogonalEdgeStyle;rounded=0;orthogonalLoop=1;jettySize=auto;html=1;entryX=0.543;entryY=-0.021;entryDx=0;entryDy=0;entryPerimeter=0;" edge="1" parent="1" source="EdqdQXqLjgvHGHP06fCY-36" target="EdqdQXqLjgvHGHP06fCY-45">
          <mxGeometry relative="1" as="geometry">
            <mxPoint x="1074" y="840" as="targetPoint" />
          </mxGeometry>
        </mxCell>
        <mxCell id="EdqdQXqLjgvHGHP06fCY-49" style="edgeStyle=orthogonalEdgeStyle;rounded=0;orthogonalLoop=1;jettySize=auto;html=1;exitX=1;exitY=0.5;exitDx=0;exitDy=0;entryX=0;entryY=0.5;entryDx=0;entryDy=0;" edge="1" parent="1" source="EdqdQXqLjgvHGHP06fCY-36" target="EdqdQXqLjgvHGHP06fCY-47">
          <mxGeometry relative="1" as="geometry" />
        </mxCell>
        <mxCell id="EdqdQXqLjgvHGHP06fCY-36" value="" style="rhombus;whiteSpace=wrap;html=1;" vertex="1" parent="1">
          <mxGeometry x="1008" y="684" width="132" height="102" as="geometry" />
        </mxCell>
        <mxCell id="EdqdQXqLjgvHGHP06fCY-37" value="arrey [ pos ] &amp;lt; x" style="text;html=1;align=center;verticalAlign=middle;whiteSpace=wrap;rounded=0;" vertex="1" parent="1">
          <mxGeometry x="1020" y="720" width="108" height="30" as="geometry" />
        </mxCell>
        <mxCell id="EdqdQXqLjgvHGHP06fCY-39" value="True" style="text;html=1;align=center;verticalAlign=middle;whiteSpace=wrap;rounded=0;" vertex="1" parent="1">
          <mxGeometry x="1074" y="786" width="60" height="30" as="geometry" />
        </mxCell>
        <mxCell id="EdqdQXqLjgvHGHP06fCY-43" value="False" style="text;html=1;align=center;verticalAlign=middle;whiteSpace=wrap;rounded=0;" vertex="1" parent="1">
          <mxGeometry x="588" y="708" width="60" height="30" as="geometry" />
        </mxCell>
        <mxCell id="EdqdQXqLjgvHGHP06fCY-44" value="False" style="text;html=1;align=center;verticalAlign=middle;whiteSpace=wrap;rounded=0;" vertex="1" parent="1">
          <mxGeometry x="864" y="708" width="60" height="30" as="geometry" />
        </mxCell>
        <mxCell id="EdqdQXqLjgvHGHP06fCY-45" value="" style="whiteSpace=wrap;html=1;" vertex="1" parent="1">
          <mxGeometry x="924" y="900" width="276" height="48" as="geometry" />
        </mxCell>
        <mxCell id="EdqdQXqLjgvHGHP06fCY-46" value="return interpolationSearch (arrey, lo, pos - 1,&amp;nbsp; x);" style="text;html=1;align=center;verticalAlign=middle;whiteSpace=wrap;rounded=0;" vertex="1" parent="1">
          <mxGeometry x="930" y="909" width="264" height="30" as="geometry" />
        </mxCell>
        <mxCell id="EdqdQXqLjgvHGHP06fCY-47" value="" style="rounded=0;whiteSpace=wrap;html=1;" vertex="1" parent="1">
          <mxGeometry x="1356" y="900" width="120" height="60" as="geometry" />
        </mxCell>
        <mxCell id="EdqdQXqLjgvHGHP06fCY-48" value="return -1;" style="text;html=1;align=center;verticalAlign=middle;whiteSpace=wrap;rounded=0;" vertex="1" parent="1">
          <mxGeometry x="1386" y="915" width="60" height="30" as="geometry" />
        </mxCell>
        <mxCell id="EdqdQXqLjgvHGHP06fCY-50" value="False" style="text;html=1;align=center;verticalAlign=middle;whiteSpace=wrap;rounded=0;" vertex="1" parent="1">
          <mxGeometry x="1140" y="708" width="60" height="30" as="geometry" />
        </mxCell>
        <mxCell id="EdqdQXqLjgvHGHP06fCY-52" value="False" style="text;html=1;align=center;verticalAlign=middle;whiteSpace=wrap;rounded=0;" vertex="1" parent="1">
          <mxGeometry x="696" y="420" width="60" height="30" as="geometry" />
        </mxCell>
      </root>
    </mxGraphModel>
  </diagram>
</mxfile>
